<svg xmlns="http://www.w3.org/2000/svg" viewBox="0 0 32 32" width="256" height="256">
  <rect x="11" y="10" width="1" height="1" fill="#FFF" shape-rendering="crispEdges" />
  <rect x="12" y="10" width="1" height="1" fill="#FFF" shape-rendering="crispEdges" />
  <rect x="13" y="10" width="1" height="1" fill="#FFF" shape-rendering="crispEdges" />
  <rect x="19" y="10" width="1" height="1" fill="#F39C12" shape-rendering="crispEdges" />
  <rect x="11" y="11" width="1" height="1" fill="#F39C12" shape-rendering="crispEdges" />
  <rect x="12" y="11" width="1" height="1" fill="#F39C12" shape-rendering="crispEdges" />
  <rect x="13" y="11" width="1" height="1" fill="#F39C12" shape-rendering="crispEdges" />
  <rect x="18" y="11" width="1" height="1" fill="#F39C12" shape-rendering="crispEdges" />
  <rect x="19" y="11" width="1" height="1" fill="#F39C12" shape-rendering="crispEdges" />
  <rect x="20" y="11" width="1" height="1" fill="#F39C12" shape-rendering="crispEdges" />
  <rect x="10" y="12" width="1" height="1" fill="#F39C12" shape-rendering="crispEdges" />
  <rect x="11" y="12" width="1" height="1" fill="#F39C12" shape-rendering="crispEdges" />
  <rect x="12" y="12" width="1" height="1" fill="#F39C12" shape-rendering="crispEdges" />
  <rect x="13" y="12" width="1" height="1" fill="#F39C12" shape-rendering="crispEdges" />
  <rect x="14" y="12" width="1" height="1" fill="#F39C12" shape-rendering="crispEdges" />
  <rect x="15" y="12" width="1" height="1" fill="#F39C12" shape-rendering="crispEdges" />
  <rect x="16" y="12" width="1" height="1" fill="#F39C12" shape-rendering="crispEdges" />
  <rect x="17" y="12" width="1" height="1" fill="#F39C12" shape-rendering="crispEdges" />
  <rect x="18" y="12" width="1" height="1" fill="#F39C12" shape-rendering="crispEdges" />
  <rect x="19" y="12" width="1" height="1" fill="#F39C12" shape-rendering="crispEdges" />
  <rect x="20" y="12" width="1" height="1" fill="#F39C12" shape-rendering="crispEdges" />
  <rect x="21" y="12" width="1" height="1" fill="#F39C12" shape-rendering="crispEdges" />
  <rect x="10" y="13" width="1" height="1" fill="#F39C12" shape-rendering="crispEdges" />
  <rect x="11" y="13" width="1" height="1" fill="#F39C12" shape-rendering="crispEdges" />
  <rect x="12" y="13" width="1" height="1" fill="#000" shape-rendering="crispEdges" />
  <rect x="13" y="13" width="1" height="1" fill="#F39C12" shape-rendering="crispEdges" />
  <rect x="14" y="13" width="1" height="1" fill="#F39C12" shape-rendering="crispEdges" />
  <rect x="15" y="13" width="1" height="1" fill="#F39C12" shape-rendering="crispEdges" />
  <rect x="16" y="13" width="1" height="1" fill="#F39C12" shape-rendering="crispEdges" />
  <rect x="17" y="13" width="1" height="1" fill="#F39C12" shape-rendering="crispEdges" />
  <rect x="18" y="13" width="1" height="1" fill="#F39C12" shape-rendering="crispEdges" />
  <rect x="19" y="13" width="1" height="1" fill="#F39C12" shape-rendering="crispEdges" />
  <rect x="20" y="13" width="1" height="1" fill="#F39C12" shape-rendering="crispEdges" />
  <rect x="21" y="13" width="1" height="1" fill="#000" shape-rendering="crispEdges" />
  <rect x="10" y="14" width="1" height="1" fill="#F39C12" shape-rendering="crispEdges" />
  <rect x="11" y="14" width="1" height="1" fill="#F39C12" shape-rendering="crispEdges" />
  <rect x="12" y="14" width="1" height="1" fill="#F39C12" shape-rendering="crispEdges" />
  <rect x="13" y="14" width="1" height="1" fill="#F39C12" shape-rendering="crispEdges" />
  <rect x="14" y="14" width="1" height="1" fill="#F39C12" shape-rendering="crispEdges" />
  <rect x="15" y="14" width="1" height="1" fill="#F39C12" shape-rendering="crispEdges" />
  <rect x="16" y="14" width="1" height="1" fill="#F39C12" shape-rendering="crispEdges" />
  <rect x="17" y="14" width="1" height="1" fill="#F39C12" shape-rendering="crispEdges" />
  <rect x="18" y="14" width="1" height="1" fill="#F39C12" shape-rendering="crispEdges" />
  <rect x="19" y="14" width="1" height="1" fill="#F39C12" shape-rendering="crispEdges" />
  <rect x="20" y="14" width="1" height="1" fill="#F39C12" shape-rendering="crispEdges" />
  <rect x="21" y="14" width="1" height="1" fill="#F39C12" shape-rendering="crispEdges" />
  <rect x="9" y="15" width="1" height="1" fill="#F39C12" shape-rendering="crispEdges" />
  <rect x="10" y="15" width="1" height="1" fill="#F39C12" shape-rendering="crispEdges" />
  <rect x="11" y="15" width="1" height="1" fill="#F39C12" shape-rendering="crispEdges" />
  <rect x="12" y="15" width="1" height="1" fill="#FFD1D1" shape-rendering="crispEdges" />
  <rect x="13" y="15" width="1" height="1" fill="#F39C12" shape-rendering="crispEdges" />
  <rect x="14" y="15" width="1" height="1" fill="#F39C12" shape-rendering="crispEdges" />
  <rect x="15" y="15" width="1" height="1" fill="#F39C12" shape-rendering="crispEdges" />
  <rect x="16" y="15" width="1" height="1" fill="#F39C12" shape-rendering="crispEdges" />
  <rect x="17" y="15" width="1" height="1" fill="#F39C12" shape-rendering="crispEdges" />
  <rect x="18" y="15" width="1" height="1" fill="#F39C12" shape-rendering="crispEdges" />
  <rect x="19" y="15" width="1" height="1" fill="#F39C12" shape-rendering="crispEdges" />
  <rect x="20" y="15" width="1" height="1" fill="#FFD1D1" shape-rendering="crispEdges" />
  <rect x="21" y="15" width="1" height="1" fill="#F39C12" shape-rendering="crispEdges" />
  <rect x="10" y="16" width="1" height="1" fill="#F39C12" shape-rendering="crispEdges" />
  <rect x="11" y="16" width="1" height="1" fill="#F39C12" shape-rendering="crispEdges" />
  <rect x="12" y="16" width="1" height="1" fill="#F39C12" shape-rendering="crispEdges" />
  <rect x="13" y="16" width="1" height="1" fill="#F39C12" shape-rendering="crispEdges" />
  <rect x="14" y="16" width="1" height="1" fill="#F39C12" shape-rendering="crispEdges" />
  <rect x="15" y="16" width="1" height="1" fill="#F39C12" shape-rendering="crispEdges" />
  <rect x="16" y="16" width="1" height="1" fill="#F39C12" shape-rendering="crispEdges" />
  <rect x="17" y="16" width="1" height="1" fill="#F39C12" shape-rendering="crispEdges" />
  <rect x="18" y="16" width="1" height="1" fill="#F39C12" shape-rendering="crispEdges" />
  <rect x="19" y="16" width="1" height="1" fill="#F39C12" shape-rendering="crispEdges" />
  <rect x="12" y="17" width="1" height="1" fill="#F39C12" shape-rendering="crispEdges" />
  <rect x="13" y="17" width="1" height="1" fill="#F39C12" shape-rendering="crispEdges" />
  <rect x="14" y="17" width="1" height="1" fill="#F39C12" shape-rendering="crispEdges" />
  <rect x="15" y="17" width="1" height="1" fill="#F39C12" shape-rendering="crispEdges" />
  <rect x="16" y="17" width="1" height="1" fill="#F39C12" shape-rendering="crispEdges" />
  <rect x="17" y="17" width="1" height="1" fill="#F39C12" shape-rendering="crispEdges" />
  <rect x="18" y="17" width="1" height="1" fill="#F39C12" shape-rendering="crispEdges" />
  <rect x="19" y="17" width="1" height="1" fill="#F39C12" shape-rendering="crispEdges" />
  <rect x="21" y="17" width="1" height="1" fill="#F39C12" shape-rendering="crispEdges" />
  <rect x="22" y="17" width="1" height="1" fill="#F39C12" shape-rendering="crispEdges" />
  <rect x="13" y="18" width="1" height="1" fill="#F39C12" shape-rendering="crispEdges" />
  <rect x="14" y="18" width="1" height="1" fill="#F39C12" shape-rendering="crispEdges" />
  <rect x="15" y="18" width="1" height="1" fill="#F39C12" shape-rendering="crispEdges" />
  <rect x="16" y="18" width="1" height="1" fill="#F39C12" shape-rendering="crispEdges" />
  <rect x="17" y="18" width="1" height="1" fill="#F39C12" shape-rendering="crispEdges" />
  <rect x="18" y="18" width="1" height="1" fill="#F39C12" shape-rendering="crispEdges" />
  <rect x="20" y="18" width="1" height="1" fill="#F39C12" shape-rendering="crispEdges" />
  <rect x="21" y="18" width="1" height="1" fill="#F39C12" shape-rendering="crispEdges" />
  <rect x="22" y="18" width="1" height="1" fill="#F39C12" shape-rendering="crispEdges" />
  <rect x="13" y="19" width="1" height="1" fill="#F39C12" shape-rendering="crispEdges" />
  <rect x="14" y="19" width="1" height="1" fill="#F39C12" shape-rendering="crispEdges" />
  <rect x="15" y="19" width="1" height="1" fill="#F39C12" shape-rendering="crispEdges" />
  <rect x="16" y="19" width="1" height="1" fill="#F39C12" shape-rendering="crispEdges" />
  <rect x="17" y="19" width="1" height="1" fill="#F39C12" shape-rendering="crispEdges" />
  <rect x="18" y="19" width="1" height="1" fill="#F39C12" shape-rendering="crispEdges" />
  <rect x="20" y="19" width="1" height="1" fill="#F39C12" shape-rendering="crispEdges" />
  <rect x="22" y="19" width="1" height="1" fill="#F39C12" shape-rendering="crispEdges" />
  <rect x="13" y="20" width="1" height="1" fill="#F39C12" shape-rendering="crispEdges" />
  <rect x="15" y="20" width="1" height="1" fill="#F39C12" shape-rendering="crispEdges" />
  <rect x="17" y="20" width="1" height="1" fill="#F39C12" shape-rendering="crispEdges" />
  <rect x="19" y="20" width="1" height="1" fill="#F39C12" shape-rendering="crispEdges" />
  <rect x="13" y="21" width="1" height="1" fill="#FFF" shape-rendering="crispEdges" />
  <rect x="15" y="21" width="1" height="1" fill="#FFF" shape-rendering="crispEdges" />
  <rect x="17" y="21" width="1" height="1" fill="#FFF" shape-rendering="crispEdges" />
  <rect x="19" y="21" width="1" height="1" fill="#FFF" shape-rendering="crispEdges" />
</svg>