<svg xmlns="http://www.w3.org/2000/svg" viewBox="0 0 32 32" width="256" height="256">
  <rect x="9" y="10" width="1" height="1" fill="#FFD1D1" shape-rendering="crispEdges" />
  <rect x="14" y="10" width="1" height="1" fill="#FFD1D1" shape-rendering="crispEdges" />
  <rect x="22" y="10" width="1" height="1" fill="#FFD1D1" shape-rendering="crispEdges" />
  <rect x="8" y="11" width="1" height="1" fill="#FFD1D1" shape-rendering="crispEdges" />
  <rect x="9" y="11" width="1" height="1" fill="#FFD1D1" shape-rendering="crispEdges" />
  <rect x="10" y="11" width="1" height="1" fill="#FFD1D1" shape-rendering="crispEdges" />
  <rect x="13" y="11" width="1" height="1" fill="#FFD1D1" shape-rendering="crispEdges" />
  <rect x="14" y="11" width="1" height="1" fill="#FFD1D1" shape-rendering="crispEdges" />
  <rect x="15" y="11" width="1" height="1" fill="#FFD1D1" shape-rendering="crispEdges" />
  <rect x="21" y="11" width="1" height="1" fill="#FFD1D1" shape-rendering="crispEdges" />
  <rect x="22" y="11" width="1" height="1" fill="#FFD1D1" shape-rendering="crispEdges" />
  <rect x="23" y="11" width="1" height="1" fill="#FFD1D1" shape-rendering="crispEdges" />
  <rect x="7" y="12" width="1" height="1" fill="#FFD1D1" shape-rendering="crispEdges" />
  <rect x="8" y="12" width="1" height="1" fill="#FFD1D1" shape-rendering="crispEdges" />
  <rect x="9" y="12" width="1" height="1" fill="#FFD1D1" shape-rendering="crispEdges" />
  <rect x="10" y="12" width="1" height="1" fill="#FFD1D1" shape-rendering="crispEdges" />
  <rect x="11" y="12" width="1" height="1" fill="#FFD1D1" shape-rendering="crispEdges" />
  <rect x="12" y="12" width="1" height="1" fill="#FFD1D1" shape-rendering="crispEdges" />
  <rect x="13" y="12" width="1" height="1" fill="#FFD1D1" shape-rendering="crispEdges" />
  <rect x="14" y="12" width="1" height="1" fill="#FFD1D1" shape-rendering="crispEdges" />
  <rect x="15" y="12" width="1" height="1" fill="#FFD1D1" shape-rendering="crispEdges" />
  <rect x="16" y="12" width="1" height="1" fill="#FFD1D1" shape-rendering="crispEdges" />
  <rect x="20" y="12" width="1" height="1" fill="#FFD1D1" shape-rendering="crispEdges" />
  <rect x="21" y="12" width="1" height="1" fill="#FFD1D1" shape-rendering="crispEdges" />
  <rect x="22" y="12" width="1" height="1" fill="#FFD1D1" shape-rendering="crispEdges" />
  <rect x="23" y="12" width="1" height="1" fill="#FFD1D1" shape-rendering="crispEdges" />
  <rect x="24" y="12" width="1" height="1" fill="#FFD1D1" shape-rendering="crispEdges" />
  <rect x="6" y="13" width="1" height="1" fill="#FFD1D1" shape-rendering="crispEdges" />
  <rect x="7" y="13" width="1" height="1" fill="#FFD1D1" shape-rendering="crispEdges" />
  <rect x="8" y="13" width="1" height="1" fill="#FFD1D1" shape-rendering="crispEdges" />
  <rect x="9" y="13" width="1" height="1" fill="#FFD1D1" shape-rendering="crispEdges" />
  <rect x="10" y="13" width="1" height="1" fill="#FFD1D1" shape-rendering="crispEdges" />
  <rect x="11" y="13" width="1" height="1" fill="#FFD1D1" shape-rendering="crispEdges" />
  <rect x="12" y="13" width="1" height="1" fill="#FFD1D1" shape-rendering="crispEdges" />
  <rect x="13" y="13" width="1" height="1" fill="#FFD1D1" shape-rendering="crispEdges" />
  <rect x="14" y="13" width="1" height="1" fill="#FFD1D1" shape-rendering="crispEdges" />
  <rect x="15" y="13" width="1" height="1" fill="#FFD1D1" shape-rendering="crispEdges" />
  <rect x="16" y="13" width="1" height="1" fill="#FFD1D1" shape-rendering="crispEdges" />
  <rect x="17" y="13" width="1" height="1" fill="#FFD1D1" shape-rendering="crispEdges" />
  <rect x="20" y="13" width="1" height="1" fill="#FFD1D1" shape-rendering="crispEdges" />
  <rect x="21" y="13" width="1" height="1" fill="#FFD1D1" shape-rendering="crispEdges" />
  <rect x="22" y="13" width="1" height="1" fill="#FFD1D1" shape-rendering="crispEdges" />
  <rect x="23" y="13" width="1" height="1" fill="#FFD1D1" shape-rendering="crispEdges" />
  <rect x="24" y="13" width="1" height="1" fill="#FFD1D1" shape-rendering="crispEdges" />
  <rect x="25" y="13" width="1" height="1" fill="#FFD1D1" shape-rendering="crispEdges" />
  <rect x="6" y="14" width="1" height="1" fill="#FFD1D1" shape-rendering="crispEdges" />
  <rect x="7" y="14" width="1" height="1" fill="#FFD1D1" shape-rendering="crispEdges" />
  <rect x="8" y="14" width="1" height="1" fill="#000" shape-rendering="crispEdges" />
  <rect x="9" y="14" width="1" height="1" fill="#FFD1D1" shape-rendering="crispEdges" />
  <rect x="10" y="14" width="1" height="1" fill="#FFD1D1" shape-rendering="crispEdges" />
  <rect x="11" y="14" width="1" height="1" fill="#FFD1D1" shape-rendering="crispEdges" />
  <rect x="12" y="14" width="1" height="1" fill="#FFD1D1" shape-rendering="crispEdges" />
  <rect x="13" y="14" width="1" height="1" fill="#FFD1D1" shape-rendering="crispEdges" />
  <rect x="14" y="14" width="1" height="1" fill="#FFD1D1" shape-rendering="crispEdges" />
  <rect x="15" y="14" width="1" height="1" fill="#FFD1D1" shape-rendering="crispEdges" />
  <rect x="16" y="14" width="1" height="1" fill="#FFD1D1" shape-rendering="crispEdges" />
  <rect x="17" y="14" width="1" height="1" fill="#000" shape-rendering="crispEdges" />
  <rect x="20" y="14" width="1" height="1" fill="#FFD1D1" shape-rendering="crispEdges" />
  <rect x="21" y="14" width="1" height="1" fill="#FFD1D1" shape-rendering="crispEdges" />
  <rect x="22" y="14" width="1" height="1" fill="#FFD1D1" shape-rendering="crispEdges" />
  <rect x="23" y="14" width="1" height="1" fill="#FFD1D1" shape-rendering="crispEdges" />
  <rect x="24" y="14" width="1" height="1" fill="#FFD1D1" shape-rendering="crispEdges" />
  <rect x="25" y="14" width="1" height="1" fill="#000" shape-rendering="crispEdges" />
  <rect x="6" y="15" width="1" height="1" fill="#FFD1D1" shape-rendering="crispEdges" />
  <rect x="7" y="15" width="1" height="1" fill="#FFD1D1" shape-rendering="crispEdges" />
  <rect x="8" y="15" width="1" height="1" fill="#FFD1D1" shape-rendering="crispEdges" />
  <rect x="9" y="15" width="1" height="1" fill="#FFD1D1" shape-rendering="crispEdges" />
  <rect x="10" y="15" width="1" height="1" fill="#FFD1D1" shape-rendering="crispEdges" />
  <rect x="11" y="15" width="1" height="1" fill="#FFD1D1" shape-rendering="crispEdges" />
  <rect x="12" y="15" width="1" height="1" fill="#FFD1D1" shape-rendering="crispEdges" />
  <rect x="13" y="15" width="1" height="1" fill="#FFD1D1" shape-rendering="crispEdges" />
  <rect x="14" y="15" width="1" height="1" fill="#FFD1D1" shape-rendering="crispEdges" />
  <rect x="15" y="15" width="1" height="1" fill="#FFD1D1" shape-rendering="crispEdges" />
  <rect x="16" y="15" width="1" height="1" fill="#FFD1D1" shape-rendering="crispEdges" />
  <rect x="17" y="15" width="1" height="1" fill="#FFD1D1" shape-rendering="crispEdges" />
  <rect x="20" y="15" width="1" height="1" fill="#FFD1D1" shape-rendering="crispEdges" />
  <rect x="21" y="15" width="1" height="1" fill="#FFD1D1" shape-rendering="crispEdges" />
  <rect x="22" y="15" width="1" height="1" fill="#FFD1D1" shape-rendering="crispEdges" />
  <rect x="23" y="15" width="1" height="1" fill="#FFD1D1" shape-rendering="crispEdges" />
  <rect x="24" y="15" width="1" height="1" fill="#FFD1D1" shape-rendering="crispEdges" />
  <rect x="25" y="15" width="1" height="1" fill="#FFD1D1" shape-rendering="crispEdges" />
  <rect x="6" y="16" width="1" height="1" fill="#FFD1D1" shape-rendering="crispEdges" />
  <rect x="7" y="16" width="1" height="1" fill="#FFD1D1" shape-rendering="crispEdges" />
  <rect x="8" y="16" width="1" height="1" fill="#FFD1D1" shape-rendering="crispEdges" />
  <rect x="9" y="16" width="1" height="1" fill="#F06292" shape-rendering="crispEdges" />
  <rect x="10" y="16" width="1" height="1" fill="#FFD1D1" shape-rendering="crispEdges" />
  <rect x="11" y="16" width="1" height="1" fill="#FFD1D1" shape-rendering="crispEdges" />
  <rect x="12" y="16" width="1" height="1" fill="#FFD1D1" shape-rendering="crispEdges" />
  <rect x="13" y="16" width="1" height="1" fill="#FFD1D1" shape-rendering="crispEdges" />
  <rect x="14" y="16" width="1" height="1" fill="#FFD1D1" shape-rendering="crispEdges" />
  <rect x="15" y="16" width="1" height="1" fill="#F06292" shape-rendering="crispEdges" />
  <rect x="16" y="16" width="1" height="1" fill="#FFD1D1" shape-rendering="crispEdges" />
  <rect x="17" y="16" width="1" height="1" fill="#FFD1D1" shape-rendering="crispEdges" />
  <rect x="20" y="16" width="1" height="1" fill="#FFD1D1" shape-rendering="crispEdges" />
  <rect x="21" y="16" width="1" height="1" fill="#FFD1D1" shape-rendering="crispEdges" />
  <rect x="22" y="16" width="1" height="1" fill="#FFD1D1" shape-rendering="crispEdges" />
  <rect x="23" y="16" width="1" height="1" fill="#F06292" shape-rendering="crispEdges" />
  <rect x="24" y="16" width="1" height="1" fill="#FFD1D1" shape-rendering="crispEdges" />
  <rect x="25" y="16" width="1" height="1" fill="#FFD1D1" shape-rendering="crispEdges" />
  <rect x="7" y="17" width="1" height="1" fill="#FFD1D1" shape-rendering="crispEdges" />
  <rect x="8" y="17" width="1" height="1" fill="#FFD1D1" shape-rendering="crispEdges" />
  <rect x="9" y="17" width="1" height="1" fill="#FFD1D1" shape-rendering="crispEdges" />
  <rect x="10" y="17" width="1" height="1" fill="#FFD1D1" shape-rendering="crispEdges" />
  <rect x="11" y="17" width="1" height="1" fill="#FFD1D1" shape-rendering="crispEdges" />
  <rect x="12" y="17" width="1" height="1" fill="#FFD1D1" shape-rendering="crispEdges" />
  <rect x="13" y="17" width="1" height="1" fill="#FFD1D1" shape-rendering="crispEdges" />
  <rect x="14" y="17" width="1" height="1" fill="#FFD1D1" shape-rendering="crispEdges" />
  <rect x="15" y="17" width="1" height="1" fill="#FFD1D1" shape-rendering="crispEdges" />
  <rect x="16" y="17" width="1" height="1" fill="#FFD1D1" shape-rendering="crispEdges" />
  <rect x="20" y="17" width="1" height="1" fill="#FFD1D1" shape-rendering="crispEdges" />
  <rect x="21" y="17" width="1" height="1" fill="#FFD1D1" shape-rendering="crispEdges" />
  <rect x="22" y="17" width="1" height="1" fill="#FFD1D1" shape-rendering="crispEdges" />
  <rect x="23" y="17" width="1" height="1" fill="#FFD1D1" shape-rendering="crispEdges" />
  <rect x="24" y="17" width="1" height="1" fill="#FFD1D1" shape-rendering="crispEdges" />
  <rect x="8" y="18" width="1" height="1" fill="#FFD1D1" shape-rendering="crispEdges" />
  <rect x="9" y="18" width="1" height="1" fill="#FFD1D1" shape-rendering="crispEdges" />
  <rect x="10" y="18" width="1" height="1" fill="#6D4C41" shape-rendering="crispEdges" />
  <rect x="11" y="18" width="1" height="1" fill="#8D6E63" shape-rendering="crispEdges" />
  <rect x="12" y="18" width="1" height="1" fill="#8D6E63" shape-rendering="crispEdges" />
  <rect x="13" y="18" width="1" height="1" fill="#6D4C41" shape-rendering="crispEdges" />
  <rect x="14" y="18" width="1" height="1" fill="#FFD1D1" shape-rendering="crispEdges" />
  <rect x="15" y="18" width="1" height="1" fill="#FFD1D1" shape-rendering="crispEdges" />
  <rect x="20" y="18" width="1" height="1" fill="#8D6E63" shape-rendering="crispEdges" />
  <rect x="21" y="18" width="1" height="1" fill="#6D4C41" shape-rendering="crispEdges" />
  <rect x="22" y="18" width="1" height="1" fill="#FFD1D1" shape-rendering="crispEdges" />
  <rect x="23" y="18" width="1" height="1" fill="#FFD1D1" shape-rendering="crispEdges" />
  <rect x="9" y="19" width="1" height="1" fill="#FFD1D1" shape-rendering="crispEdges" />
  <rect x="10" y="19" width="1" height="1" fill="#FFD1D1" shape-rendering="crispEdges" />
  <rect x="11" y="19" width="1" height="1" fill="#FFD1D1" shape-rendering="crispEdges" />
  <rect x="12" y="19" width="1" height="1" fill="#FFD1D1" shape-rendering="crispEdges" />
  <rect x="13" y="19" width="1" height="1" fill="#FFD1D1" shape-rendering="crispEdges" />
  <rect x="14" y="19" width="1" height="1" fill="#FFD1D1" shape-rendering="crispEdges" />
  <rect x="20" y="19" width="1" height="1" fill="#FFD1D1" shape-rendering="crispEdges" />
  <rect x="21" y="19" width="1" height="1" fill="#FFD1D1" shape-rendering="crispEdges" />
  <rect x="22" y="19" width="1" height="1" fill="#FFD1D1" shape-rendering="crispEdges" />
  <rect x="9" y="20" width="1" height="1" fill="#FFF" shape-rendering="crispEdges" />
  <rect x="14" y="20" width="1" height="1" fill="#FFF" shape-rendering="crispEdges" />
  <rect x="22" y="20" width="1" height="1" fill="#FFF" shape-rendering="crispEdges" />
</svg>